<svg xmlns="http://www.w3.org/2000/svg" viewBox="0 0 1159.6 256" width="1159.6" height="256" role="img" aria-label="Carve">
  <defs>
    <radialGradient id="carve-lockup-white-body" cx="0.38" cy="0.38" r="0.72">
      <stop offset="0%" stop-color="#C57150"/>
      <stop offset="50%" stop-color="#8B4A2C"/>
      <stop offset="100%" stop-color="#4A2816"/>
    </radialGradient>
    <radialGradient id="carve-lockup-white-shadow" cx="0.72" cy="0.78" r="0.62">
      <stop offset="0%" stop-color="#1A100A" stop-opacity="0"/>
      <stop offset="100%" stop-color="#1A100A" stop-opacity="0.32"/>
    </radialGradient>
    <radialGradient id="carve-lockup-white-spec" cx="0.3" cy="0.25" r="0.28">
      <stop offset="0%" stop-color="#FFF5E6" stop-opacity="0.52"/>
      <stop offset="100%" stop-color="#FFF5E6" stop-opacity="0"/>
    </radialGradient>
  </defs>
  <circle cx="128" cy="128" r="120" fill="url(#carve-lockup-white-body)"/>
  <circle cx="128" cy="128" r="120" fill="url(#carve-lockup-white-shadow)"/>
  <circle cx="128" cy="128" r="120" fill="url(#carve-lockup-white-spec)"/>
  <path fill="#F5F0E8" d="M480.94 53.59Q488.79 53.59 496.27 54.35Q503.74 55.1 510.35 56.7Q516.96 58.3 522.25 60.82Q524.13 61.57 524.64 62.48Q525.16 63.39 525.39 66.04L528.31 96.43Q528.31 97.06 527.13 97.32Q525.95 97.58 525.55 96.66Q519.49 77.91 507.71 67.94Q495.93 57.98 478.28 57.98Q461.31 57.98 448.21 66.41Q435.12 74.84 427.72 90.31Q420.33 105.78 420.33 127.11Q420.33 142.89 424.82 155.98Q429.3 169.07 437.43 178.53Q445.56 187.98 456.42 193.14Q467.27 198.31 480.07 198.31Q497.35 198.31 508.39 189.27Q519.44 180.22 527.66 161.15Q528.06 160.46 529.16 160.69Q530.26 160.92 530.26 161.55L527.25 188.93Q527.02 191.69 526.48 192.47Q525.93 193.24 524.05 194.16Q512.7 198.77 501.9 200.73Q491.1 202.7 480.01 202.7Q455.36 202.7 436.23 193.32Q417.1 183.94 406.18 167.11Q395.27 150.28 395.27 128.34Q395.27 111.78 401.7 98.02Q408.13 84.27 419.78 74.36Q431.44 64.45 447.05 59.02Q462.67 53.59 480.94 53.59Z M586.85 143.54 589.92 137.73H654.33L655.94 143.54ZM709.15 197.12Q710.23 197.12 710.23 198.5Q710.23 199.88 709.15 199.88Q702.37 199.88 695.09 199.42Q687.8 198.96 681.09 198.96Q673.46 198.96 667.87 199.42Q662.28 199.88 655.4 199.88Q654.48 199.88 654.48 198.5Q654.48 197.12 655.4 197.12Q665.78 197.12 667.78 193.41Q669.78 189.71 664.41 178.89L616.27 81.28L625.64 65.87L580.25 168.42Q574.16 182.28 579.83 189.7Q585.49 197.12 599.13 197.12Q600.28 197.12 600.28 198.5Q600.28 199.88 599.13 199.88Q592.23 199.88 586.48 199.42Q580.73 198.96 571.99 198.96Q563.27 198.96 558 199.42Q552.72 199.88 545.15 199.88Q544.23 199.88 544.23 198.5Q544.23 197.12 545.15 197.12Q551.36 197.12 555.88 194.56Q560.39 192.01 564.75 185.28Q569.11 178.55 574.54 166.18L623.95 54.83Q624.24 54.14 625.86 54.05Q627.48 53.97 627.71 54.83L684.07 168.37Q689.53 179.36 693.58 185.69Q697.64 192.01 701.36 194.56Q705.09 197.12 709.15 197.12Z M837.62 199.88Q834.04 199.88 825.99 191.16Q817.94 182.44 806.62 166.01Q795.3 149.59 781.16 126.82L799.54 121.2Q818.32 149.03 831.54 165.72Q844.75 182.42 855 189.77Q865.25 197.12 874.64 197.12Q875.16 197.12 875.16 198.5Q875.16 199.88 874.64 199.88Q860.12 199.88 850.98 199.88Q841.84 199.88 837.62 199.88ZM785.26 55.44Q805.47 55.44 816.28 63.36Q827.1 71.29 827.1 85.02Q827.1 98.21 819.64 108.52Q812.17 118.83 800.33 124.58Q788.48 130.33 775.06 130.33Q772.15 130.33 768.98 130.27Q765.8 130.2 763.17 129.97V181.25Q763.17 187.91 764.38 191.37Q765.59 194.81 769.33 195.97Q773.06 197.12 780.63 197.12Q781.16 197.12 781.16 198.5Q781.16 199.88 780.63 199.88Q774.78 199.88 767.64 199.64Q760.5 199.41 751.95 199.41Q743.93 199.41 736.61 199.64Q729.29 199.88 723.44 199.88Q722.81 199.88 722.81 198.5Q722.81 197.12 723.44 197.12Q731.01 197.12 734.75 195.97Q738.48 194.81 739.84 191.37Q741.2 187.91 741.2 181.25V74.75Q741.2 68.09 739.96 64.75Q738.71 61.41 735.01 60.15Q731.31 58.88 723.73 58.88Q723.21 58.88 723.21 57.5Q723.21 56.12 723.73 56.12Q729.52 56.12 736.73 56.47Q743.93 56.81 751.95 56.81Q759.42 56.81 768.6 56.12Q777.78 55.44 785.26 55.44ZM804.55 93.07Q804.55 79.81 801.44 72.62Q798.33 65.43 792.78 62.59Q787.22 59.76 779.81 59.76Q770.86 59.76 767.01 63.08Q763.17 66.41 763.17 75.21V123.85Q766.39 124.25 770.1 124.48Q773.81 124.71 776.63 124.71Q791.91 124.71 798.23 117.01Q804.55 109.31 804.55 93.07Z M1030.16 56.12Q1030.85 56.12 1030.85 57.5Q1030.85 58.88 1030.16 58.88Q1022.03 58.88 1015.12 65.04Q1008.21 71.2 1003.74 82.93L958.98 199.65Q958.75 200.56 956.56 200.56Q954.38 200.56 953.92 199.65L895.77 75.21Q891.86 66.91 887.66 62.9Q883.46 58.88 877.6 58.88Q876.91 58.88 876.91 57.5Q876.91 56.12 877.6 56.12Q880.48 56.12 882.48 56.36Q884.49 56.59 887.32 56.7Q890.16 56.81 895.15 56.81Q906 56.81 913.1 56.7Q920.2 56.59 924.92 56.36Q929.63 56.12 933.25 56.12Q933.94 56.12 933.94 57.5Q933.94 58.88 933.25 58.88Q923.67 58.88 920.33 63.68Q916.98 68.47 921.22 77.58L965.74 173.59L956.19 189.61L997.74 82.05Q1001.63 71.66 998.1 65.27Q994.56 58.88 982.85 58.88Q982.16 58.88 982.16 57.5Q982.16 56.12 982.85 56.12Q989.14 56.12 994.84 56.47Q1000.53 56.81 1009.85 56.81Q1016.36 56.81 1020.38 56.47Q1024.41 56.12 1030.16 56.12Z M1143.2 199.88H1043.37Q1042.74 199.88 1042.74 198.5Q1042.74 197.12 1043.37 197.12Q1050.94 197.12 1054.65 195.97Q1058.35 194.81 1059.59 191.37Q1060.84 187.91 1060.84 181.25V74.75Q1060.84 68.09 1059.59 64.75Q1058.35 61.41 1054.65 60.15Q1050.94 58.88 1043.37 58.88Q1042.74 58.88 1042.74 57.5Q1042.74 56.12 1043.37 56.12H1139.12Q1141.36 56.12 1141.36 58.19L1141.82 88.03Q1141.82 88.55 1140.63 88.72Q1139.45 88.88 1139.12 88.19Q1136.45 75.07 1128.41 68.61Q1120.36 62.16 1107.24 62.16H1097.87Q1092.2 62.16 1088.86 63.4Q1085.52 64.63 1084.11 67.55Q1082.7 70.47 1082.7 75.3V180.32Q1082.7 185.26 1083.94 188.32Q1085.19 191.37 1088.03 192.69Q1090.86 194 1095.87 194H1107.2Q1122.73 194 1132.4 186.45Q1142.07 178.9 1146.19 164.13Q1146.35 163.44 1147.65 163.72Q1148.95 164 1148.95 164.52Q1148.03 171 1147.37 179.9Q1146.71 188.79 1146.71 196.43Q1146.71 199.88 1143.2 199.88ZM1130.32 147.83Q1130.32 138.14 1123.94 133.09Q1117.57 128.03 1104.53 128.03H1072.28V122.16H1104.89Q1117.64 122.16 1123.86 117.76Q1130.09 113.36 1130.09 105.12Q1130.09 104.49 1131.38 104.49Q1132.68 104.49 1132.68 105.12Q1132.68 112.46 1132.56 116.55Q1132.45 120.65 1132.45 125.12Q1132.45 130.69 1132.76 136.05Q1133.08 141.41 1133.08 147.83Q1133.08 148.29 1131.7 148.29Q1130.32 148.29 1130.32 147.83Z"/>
</svg>
