<svg width="189" height="32" viewBox="0 0 189 32" fill="none" xmlns="http://www.w3.org/2000/svg">
<g clip-path="url(#clip0_3_6)">
<path d="M33.9184 12.0105V9.90337H36.3332V7.74007C36.3332 6.56033 36.6705 5.6658 37.3468 5.05735C38.0222 4.4489 39.0076 4.14467 40.3029 4.14467C40.5249 4.14467 40.7794 4.16368 41.0663 4.20085C41.3532 4.23888 41.6077 4.29505 41.8297 4.36938V6.44884C41.6256 6.37451 41.4036 6.32265 41.1637 6.29413C40.9229 6.26561 40.7009 6.25178 40.4976 6.25178C39.9238 6.25178 39.4798 6.36414 39.1656 6.58885C38.8505 6.81357 38.6933 7.24484 38.6933 7.88095V9.90423H41.4694V12.0113H38.6933V24.4293H36.334V12.0113H33.9192L33.9184 12.0105Z" fill="#1F57FF"/>
<path d="M53.3214 23.502C52.2481 24.3265 50.8972 24.7379 49.2688 24.7379C48.1212 24.7379 47.1264 24.5503 46.2845 24.1761C45.4425 23.8019 44.7346 23.2772 44.1608 22.6031C43.587 21.929 43.1566 21.1235 42.8697 20.1866C42.5828 19.2506 42.4206 18.2298 42.3839 17.1244C42.3839 16.0199 42.5504 15.0078 42.8834 14.0899C43.2164 13.1721 43.6835 12.3761 44.2855 11.7019C44.8866 11.0278 45.5988 10.5032 46.4228 10.1289C47.2459 9.75471 48.1485 9.56716 49.1288 9.56716C50.4053 9.56716 51.465 9.83422 52.307 10.3675C53.1489 10.9016 53.8243 11.5801 54.3333 12.4046C54.8422 13.2291 55.194 14.128 55.3878 15.102C55.5825 16.0761 55.6611 17.0034 55.6235 17.8833H44.8815C44.8627 18.5202 44.937 19.1244 45.1035 19.6957C45.27 20.267 45.5382 20.7726 45.9087 21.2125C46.2785 21.6524 46.7507 22.0042 47.3245 22.266C47.8975 22.5288 48.5738 22.6593 49.3508 22.6593C50.3499 22.6593 51.1687 22.4251 51.8074 21.9566C52.4462 21.4882 52.8663 20.7769 53.0704 19.821H55.4023C55.0873 21.4501 54.3939 22.6774 53.3205 23.5011L53.3214 23.502ZM52.7527 14.1738C52.5401 13.6682 52.2532 13.2326 51.892 12.867C51.5308 12.5014 51.1055 12.2119 50.6154 11.9958C50.1244 11.7806 49.5839 11.6725 48.9913 11.6725C48.3987 11.6725 47.83 11.7806 47.3399 11.9958C46.8497 12.211 46.4279 12.5066 46.077 12.8808C45.7252 13.2559 45.4476 13.6915 45.2444 14.1876C45.0403 14.6837 44.9208 15.2135 44.8832 15.7753H53.1276C53.09 15.2135 52.9653 14.6794 52.7527 14.1738Z" fill="#1F57FF"/>
<path d="M67.8103 23.502C66.7369 24.3265 65.3861 24.7379 63.7577 24.7379C62.6101 24.7379 61.6153 24.5503 60.7733 24.1761C59.9314 23.8019 59.2235 23.2772 58.6497 22.6031C58.0759 21.929 57.6455 21.1235 57.3586 20.1866C57.0717 19.2506 56.9095 18.2298 56.8727 17.1244C56.8727 16.0199 57.0393 15.0078 57.3723 14.0899C57.7053 13.1721 58.1724 12.3761 58.7744 11.7019C59.3755 11.0278 60.0877 10.5032 60.9117 10.1289C61.7348 9.75471 62.6374 9.56716 63.6177 9.56716C64.8942 9.56716 65.9539 9.83422 66.7958 10.3675C67.6378 10.9016 68.3132 11.5801 68.8221 12.4046C69.3311 13.2291 69.6829 14.128 69.8767 15.102C70.0714 16.0761 70.1499 17.0034 70.1124 17.8833H59.3704C59.3516 18.5202 59.4259 19.1244 59.5924 19.6957C59.7589 20.267 60.027 20.7726 60.3976 21.2125C60.7674 21.6524 61.2396 22.0042 61.8134 22.266C62.3863 22.5288 63.0626 22.6593 63.8397 22.6593C64.8387 22.6593 65.6576 22.4251 66.2963 21.9566C66.935 21.4882 67.3551 20.7769 67.5592 19.821H69.8912C69.5761 21.4501 68.8828 22.6774 67.8094 23.5011L67.8103 23.502ZM67.2416 14.1738C67.029 13.6682 66.7421 13.2326 66.3809 12.867C66.0197 12.5014 65.5944 12.2119 65.1043 11.9958C64.6133 11.7806 64.0728 11.6725 63.4802 11.6725C62.8876 11.6725 62.3189 11.7806 61.8287 11.9958C61.3386 12.211 60.9168 12.5066 60.5658 12.8808C60.214 13.2559 59.9365 13.6915 59.7333 14.1876C59.5292 14.6837 59.4097 15.2135 59.3721 15.7753H67.6164C67.5789 15.2135 67.4542 14.6794 67.2416 14.1738Z" fill="#1F57FF"/>
<path d="M82.6048 24.4293V22.4631H82.5493C82.1608 23.2686 81.5503 23.8494 80.7177 24.2046C79.8852 24.5598 78.969 24.7387 77.9699 24.7387C76.8598 24.7387 75.8924 24.5322 75.0692 24.1208C74.2452 23.7094 73.5604 23.1562 73.0148 22.4631C72.4691 21.7699 72.0575 20.9644 71.7792 20.0466C71.5017 19.1287 71.3625 18.1547 71.3625 17.1244C71.3625 16.0942 71.4965 15.1202 71.7647 14.2023C72.0328 13.2844 72.4401 12.4841 72.9857 11.8005C73.5314 11.1168 74.2162 10.5741 75.0402 10.1713C75.8633 9.76854 76.8214 9.56716 77.9135 9.56716C78.2833 9.56716 78.6812 9.60519 79.1073 9.67952C79.5325 9.75471 79.9578 9.8809 80.3839 10.0589C80.8091 10.237 81.2121 10.4712 81.5913 10.7616C81.9704 11.052 82.2898 11.4124 82.5485 11.8437H82.604V4.36852H84.9633V24.4285H82.604L82.6048 24.4293ZM74.1248 19.2739C74.3007 19.9204 74.5688 20.496 74.93 21.0016C75.2912 21.5072 75.7532 21.91 76.3176 22.2099C76.882 22.5098 77.543 22.6593 78.3021 22.6593C79.0612 22.6593 79.7733 22.5003 80.3284 22.1813C80.8834 21.8633 81.3368 21.4467 81.6886 20.9307C82.0396 20.4156 82.2949 19.8305 82.452 19.1745C82.6091 18.5194 82.6877 17.8539 82.6877 17.1797C82.6877 16.4684 82.604 15.7796 82.4375 15.115C82.271 14.4503 82.0071 13.8644 81.6468 13.3588C81.2856 12.8532 80.8185 12.4461 80.2447 12.1367C79.6709 11.8273 78.9766 11.6734 78.1629 11.6734C77.3491 11.6734 76.6916 11.8324 76.1366 12.1514C75.5816 12.4703 75.1375 12.8912 74.8045 13.4158C74.4715 13.9404 74.2307 14.5394 74.083 15.2135C73.9344 15.8876 73.861 16.5808 73.861 17.293C73.861 17.9671 73.9489 18.6274 74.1248 19.2739Z" fill="#1F57FF"/>
<path d="M87.8512 14.1885C88.1466 13.2611 88.5915 12.4565 89.1832 11.7719C89.775 11.0883 90.5059 10.5499 91.376 10.1566C92.2453 9.76336 93.2452 9.5663 94.3741 9.5663C95.5029 9.5663 96.525 9.76336 97.3857 10.1566C98.2465 10.5499 98.9723 11.0883 99.5649 11.7719C100.157 12.4556 100.601 13.2611 100.897 14.1885C101.192 15.1158 101.341 16.1132 101.341 17.1806C101.341 18.248 101.192 19.2411 100.897 20.1589C100.601 21.0768 100.157 21.8771 99.5649 22.5608C98.9723 23.2444 98.2465 23.7785 97.3857 24.1623C96.525 24.546 95.5208 24.7379 94.3741 24.7379C93.2273 24.7379 92.2462 24.546 91.376 24.1623C90.5059 23.7785 89.775 23.2444 89.1832 22.5608C88.5906 21.8771 88.1466 21.0768 87.8512 20.1589C87.5549 19.2411 87.4071 18.248 87.4071 17.1806C87.4071 16.1132 87.5549 15.1158 87.8512 14.1885ZM90.2523 19.5263C90.4837 20.2099 90.8031 20.7812 91.2095 21.2401C91.616 21.6991 92.0933 22.0508 92.639 22.2937C93.1846 22.5374 93.7635 22.6593 94.3741 22.6593C94.9846 22.6593 95.5627 22.5374 96.1092 22.2937C96.6548 22.0508 97.1313 21.6991 97.5386 21.2401C97.945 20.7812 98.2644 20.2099 98.4958 19.5263C98.7272 18.8426 98.8425 18.0604 98.8425 17.1806C98.8425 16.3008 98.7264 15.5186 98.4958 14.835C98.2644 14.1513 97.945 13.5757 97.5386 13.1073C97.1313 12.6397 96.6548 12.2836 96.1092 12.0399C95.5635 11.797 94.9846 11.6743 94.3741 11.6743C93.7635 11.6743 93.1846 11.7961 92.639 12.0399C92.0933 12.2836 91.616 12.6397 91.2095 13.1073C90.8022 13.5757 90.4829 14.1513 90.2523 14.835C90.0209 15.5186 89.9056 16.3008 89.9056 17.1806C89.9056 18.0604 90.0209 18.8435 90.2523 19.5263Z" fill="#1F57FF"/>
<path d="M105.921 9.90337V12.2075H105.977C106.957 10.447 108.512 9.5663 110.64 9.5663C111.583 9.5663 112.37 9.69767 112.999 9.95955C113.629 10.2223 114.137 10.587 114.526 11.0555C114.914 11.5239 115.188 12.0814 115.345 12.727C115.502 13.3735 115.581 14.0899 115.581 14.8764V24.4293H113.221V14.5955C113.221 13.6967 112.962 12.9845 112.444 12.4599C111.926 11.9362 111.213 11.6734 110.307 11.6734C109.585 11.6734 108.96 11.7858 108.433 12.0105C107.906 12.2352 107.466 12.5541 107.115 12.9655C106.763 13.3778 106.499 13.86 106.324 14.4123C106.148 14.9655 106.06 15.5687 106.06 16.2247V24.4285H103.701V9.90337H105.922H105.921Z" fill="#1F57FF"/>
<path d="M118.385 14.1885C118.68 13.2611 119.125 12.4565 119.717 11.7719C120.309 11.0883 121.039 10.5499 121.91 10.1566C122.779 9.76336 123.779 9.5663 124.908 9.5663C126.036 9.5663 127.059 9.76336 127.919 10.1566C128.78 10.5499 129.506 11.0883 130.098 11.7719C130.69 12.4556 131.134 13.2611 131.43 14.1885C131.726 15.1158 131.875 16.1132 131.875 17.1806C131.875 18.248 131.726 19.2411 131.43 20.1589C131.134 21.0768 130.69 21.8771 130.098 22.5608C129.506 23.2444 128.78 23.7785 127.919 24.1623C127.059 24.546 126.054 24.7379 124.908 24.7379C123.761 24.7379 122.78 24.546 121.91 24.1623C121.039 23.7785 120.309 23.2444 119.717 22.5608C119.124 21.8771 118.68 21.0768 118.385 20.1589C118.088 19.2411 117.941 18.248 117.941 17.1806C117.941 16.1132 118.088 15.1158 118.385 14.1885ZM120.786 19.5263C121.017 20.2099 121.337 20.7812 121.743 21.2401C122.15 21.6991 122.627 22.0508 123.172 22.2937C123.718 22.5374 124.297 22.6593 124.908 22.6593C125.518 22.6593 126.096 22.5374 126.643 22.2937C127.188 22.0508 127.665 21.6991 128.072 21.2401C128.479 20.7812 128.798 20.2099 129.029 19.5263C129.261 18.8426 129.376 18.0604 129.376 17.1806C129.376 16.3008 129.26 15.5186 129.029 14.835C128.798 14.1513 128.479 13.5757 128.072 13.1073C127.665 12.6397 127.188 12.2836 126.643 12.0399C126.096 11.797 125.518 11.6743 124.908 11.6743C124.297 11.6743 123.718 11.7961 123.172 12.0399C122.627 12.2836 122.15 12.6397 121.743 13.1073C121.336 13.5757 121.016 14.1513 120.786 14.835C120.554 15.5186 120.439 16.3008 120.439 17.1806C120.439 18.0604 120.554 18.8435 120.786 19.5263Z" fill="#1F57FF"/>
<path d="M136.455 9.90337V12.039H136.51C137.584 10.3908 139.128 9.5663 141.146 9.5663C142.034 9.5663 142.839 9.75385 143.561 10.1281C144.282 10.5032 144.791 11.1393 145.088 12.0381C145.568 11.2516 146.202 10.6432 146.989 10.2119C147.776 9.78151 148.641 9.56544 149.584 9.56544C150.306 9.56544 150.958 9.64495 151.541 9.80398C152.125 9.963 152.624 10.2111 153.04 10.5481C153.456 10.8852 153.78 11.3208 154.012 11.8549C154.243 12.389 154.358 13.0303 154.358 13.7797V24.4276H151.999V14.9032C151.999 14.4538 151.962 14.032 151.888 13.6388C151.814 13.2455 151.675 12.9041 151.471 12.6129C151.267 12.3225 150.985 12.0935 150.624 11.9249C150.263 11.7564 149.796 11.6717 149.222 11.6717C148.057 11.6717 147.14 12.0088 146.474 12.6829C145.808 13.357 145.475 14.2559 145.475 15.3803V24.4267H143.116V14.9024C143.116 14.4348 143.074 14.0035 142.991 13.6103C142.908 13.217 142.764 12.8756 142.561 12.5844C142.357 12.294 142.085 12.0693 141.742 11.9102C141.4 11.7512 140.96 11.6717 140.424 11.6717C139.739 11.6717 139.151 11.8126 138.661 12.0935C138.171 12.3743 137.773 12.7114 137.468 13.1047C137.162 13.4979 136.94 13.905 136.801 14.3268C136.663 14.7485 136.593 15.0994 136.593 15.3803V24.4267H134.234V9.90337H136.455Z" fill="#1F57FF"/>
<path d="M157.634 7.29065V4.36852H159.993V7.29065H157.634ZM159.993 9.90337V24.4285H157.634V9.90337H159.993Z" fill="#1F57FF"/>
<path d="M171.818 12.4323C171.225 11.9266 170.43 11.6734 169.43 11.6734C168.579 11.6734 167.866 11.8324 167.293 12.1514C166.719 12.4703 166.262 12.8912 165.919 13.4158C165.577 13.9404 165.332 14.5446 165.184 15.2282C165.035 15.9118 164.962 16.6188 164.962 17.3491C164.962 18.0233 165.041 18.6793 165.198 19.3154C165.355 19.9524 165.6 20.5193 165.933 21.0154C166.266 21.5124 166.701 21.9099 167.238 22.2099C167.774 22.5098 168.413 22.6593 169.153 22.6593C170.319 22.6593 171.23 22.3499 171.887 21.7319C172.544 21.1139 172.946 20.2428 173.095 19.1192H175.509C175.25 20.9169 174.589 22.3041 173.525 23.2772C172.461 24.2513 171.013 24.7379 169.181 24.7379C168.089 24.7379 167.122 24.5598 166.28 24.2037C165.439 23.8485 164.735 23.3421 164.17 22.6869C163.606 22.0318 163.18 21.2496 162.894 20.3413C162.607 19.4329 162.464 18.4355 162.464 17.3491C162.464 16.2627 162.602 15.2472 162.88 14.3008C163.158 13.3553 163.579 12.5308 164.143 11.8281C164.708 11.1255 165.415 10.5732 166.267 10.1704C167.118 9.76768 168.108 9.5663 169.237 9.5663C170.05 9.5663 170.814 9.66483 171.527 9.86102C172.239 10.0581 172.868 10.3623 173.415 10.7737C173.96 11.186 174.41 11.7054 174.761 12.3329C175.112 12.9603 175.334 13.7053 175.427 14.5662H172.984C172.799 13.6483 172.411 12.937 171.819 12.4305L171.818 12.4323Z" fill="#1F57FF"/>
<path d="M179.535 21.184C179.757 21.5495 180.048 21.8399 180.409 22.0551C180.77 22.2704 181.177 22.4251 181.63 22.5184C182.083 22.6126 182.551 22.6593 183.032 22.6593C183.402 22.6593 183.79 22.6308 184.198 22.5746C184.604 22.5184 184.979 22.4156 185.322 22.2652C185.665 22.1156 185.946 21.8953 186.169 21.6049C186.391 21.3145 186.502 20.9445 186.502 20.4951C186.502 19.8772 186.271 19.4087 185.808 19.0907C185.345 18.7726 184.767 18.5151 184.073 18.318C183.379 18.1209 182.625 17.9438 181.811 17.7839C180.996 17.6248 180.242 17.4001 179.549 17.1097C178.855 16.8193 178.277 16.4123 177.814 15.8876C177.351 15.3639 177.12 14.6327 177.12 13.6958C177.12 12.9655 177.281 12.338 177.606 11.8134C177.929 11.2897 178.346 10.8627 178.855 10.5352C179.364 10.2076 179.938 9.96387 180.575 9.80484C181.214 9.64581 181.848 9.5663 182.477 9.5663C183.291 9.5663 184.041 9.63631 184.725 9.77718C185.41 9.91806 186.017 10.1609 186.543 10.5075C187.071 10.8541 187.491 11.3225 187.806 11.912C188.12 12.5023 188.306 13.2369 188.361 14.1176H186.002C185.964 13.65 185.845 13.2602 185.641 12.9517C185.437 12.6423 185.178 12.3942 184.864 12.2075C184.549 12.0209 184.202 11.8843 183.823 11.8005C183.444 11.7158 183.059 11.6743 182.671 11.6743C182.319 11.6743 181.963 11.7028 181.603 11.759C181.242 11.8152 180.913 11.9137 180.617 12.0537C180.321 12.1946 180.08 12.3813 179.896 12.6155C179.71 12.8497 179.618 13.1539 179.618 13.5282C179.618 13.9404 179.762 14.2827 180.049 14.5541C180.336 14.8254 180.701 15.0502 181.145 15.2282C181.589 15.4062 182.089 15.5558 182.644 15.6776C183.199 15.7995 183.754 15.9265 184.309 16.057C184.9 16.1884 185.479 16.3474 186.044 16.535C186.608 16.7225 187.108 16.9706 187.542 17.2791C187.977 17.5885 188.329 17.9775 188.597 18.4451C188.865 18.9135 188.999 19.4943 188.999 20.1866C188.999 21.0673 188.819 21.7976 188.458 22.3784C188.097 22.9592 187.625 23.4276 187.042 23.7828C186.459 24.1389 185.802 24.387 185.071 24.527C184.34 24.667 183.614 24.7379 182.892 24.7379C182.096 24.7379 181.338 24.6532 180.616 24.4846C179.894 24.3161 179.255 24.0395 178.7 23.6558C178.145 23.2721 177.701 22.7665 177.368 22.139C177.035 21.5115 176.85 20.7484 176.813 19.8495H179.173C179.19 20.3741 179.311 20.8184 179.534 21.184H179.535Z" fill="#1F57FF"/>
<path d="M0 15.3068L3.53427 11.7814L6.04642 14.3613C6.58267 14.9119 6.57669 15.7986 6.03191 16.3414L3.48303 18.8841L0 15.3068Z" fill="#1F57FF"/>
<path d="M10.6165 14.249L5.90895 9.41332L8.57224 6.75739C8.57224 6.75739 8.42025 6.63034 9.58411 7.82564L16.0336 14.4503C16.5997 15.032 16.586 15.9758 16.002 16.5583L8.50137 24.0387L5.7339 21.1961L10.5857 16.3569C11.1698 15.7744 11.1835 14.8306 10.6173 14.249H10.6165Z" fill="#1F57FF"/>
<path d="M29.8615 13.5895L17.901 1.30464C16.8507 0.225158 15.1139 0.232937 14.0226 1.32193L11.0468 4.28987L19.777 13.2568C20.8273 14.3363 20.794 16.0933 19.7028 17.1815L10.6327 26.2279L15.7654 31.5L29.7881 17.5142C30.8794 16.4252 30.9127 14.6681 29.8624 13.5887L29.8615 13.5895ZM27.1274 16.9014L25.1395 18.8841L22.6273 16.3042C22.0911 15.7537 22.0971 14.8669 22.6419 14.3242L25.1907 11.7814L27.1496 13.7935C27.9915 14.6578 27.9813 16.0493 27.1274 16.9014Z" fill="#1F57FF"/>
</g>
<defs>
<clipPath id="clip0_3_6">
<rect width="189" height="31" fill="white" transform="translate(0 0.5)"/>
</clipPath>
</defs>
</svg>
